<svg width="23" height="26" viewBox="0 0 23 26" fill="none" xmlns="http://www.w3.org/2000/svg">
<path d="M19.5707 -0.000488281H2.59601C2.25422 0.000386077 1.91595 0.0685722 1.60052 0.200177C1.28508 0.331782 0.998656 0.524227 0.757595 0.766527C0.516534 1.00883 0.325558 1.29623 0.195571 1.61234C0.0655842 1.92844 -0.00086804 2.26706 8.56086e-06 2.60884V19.7342C8.56086e-06 21.1782 1.16534 22.3435 2.59601 22.3435H16.96L16.2867 19.9982L17.9093 21.5062L19.4413 22.9248L22.1667 25.3328V2.60884C22.1675 2.26706 22.1011 1.92844 21.9711 1.61234C21.8411 1.29623 21.6501 1.00883 21.4091 0.766527C21.168 0.524227 20.8816 0.331782 20.5662 0.200177C20.2507 0.0685722 19.9125 0.000386077 19.5707 -0.000488281ZM14.68 16.5422C14.68 16.5422 14.224 15.9982 13.8453 15.5142C15.504 15.0448 16.1373 14.0075 16.1373 14.0075C15.6173 14.3488 15.124 14.5915 14.68 14.7568C13.0636 15.4333 11.2835 15.6179 9.56267 15.2875C8.92681 15.1626 8.30376 14.9796 7.70134 14.7408C7.38363 14.6202 7.07486 14.4771 6.77734 14.3128C6.73867 14.2848 6.70134 14.2742 6.66401 14.2488C6.64404 14.2393 6.62631 14.2257 6.61201 14.2088C6.38401 14.0835 6.25734 13.9955 6.25734 13.9955C6.25734 13.9955 6.86534 15.0088 8.47467 15.4902C8.09467 15.9702 7.62534 16.5422 7.62534 16.5422C4.82667 16.4528 3.76401 14.6168 3.76401 14.6168C3.76401 10.5382 5.58801 7.23285 5.58801 7.23285C7.41201 5.86351 9.14667 5.90218 9.14667 5.90218L9.27334 6.05418C6.99334 6.71418 5.94134 7.71418 5.94134 7.71418C5.94134 7.71418 6.22134 7.56218 6.68934 7.34751C8.04401 6.75284 9.12001 6.58751 9.56401 6.54885C9.64001 6.53685 9.70401 6.52351 9.78001 6.52351C11.9763 6.22754 14.2096 6.64493 16.1507 7.71418C16.1507 7.71418 15.1493 6.76485 12.996 6.10618L13.1733 5.90351C13.1733 5.90351 14.9093 5.86484 16.732 7.23418C16.732 7.23418 18.556 10.5395 18.556 14.6182C18.556 14.6168 17.48 16.4528 14.68 16.5422Z" fill="url(#paint0_linear_108_667)"/>
<defs>
<linearGradient id="paint0_linear_108_667" x1="11.0833" y1="-0.000488281" x2="11.0833" y2="25.3328" gradientUnits="userSpaceOnUse">
<stop stop-color="#8B008C"/>
<stop offset="1" stop-color="#F83A67"/>
</linearGradient>
</defs>
</svg>
