<svg width="32" height="32" viewBox="0 0 32 32" fill="none" xmlns="http://www.w3.org/2000/svg">
<path fill-rule="evenodd" clip-rule="evenodd" d="M16 -0.000488281C7.16 -0.000488281 0 7.15951 0 15.9995C0 23.0795 4.58 29.0595 10.94 31.1795C11.74 31.3195 12.04 30.8395 12.04 30.4195C12.04 30.0395 12.02 28.7795 12.02 27.4395C8 28.1795 6.96 26.4595 6.64 25.5595C6.46 25.0995 5.68 23.6795 5 23.2995C4.44 22.9995 3.64 22.2595 4.98 22.2395C6.24 22.2195 7.14 23.3995 7.44 23.8795C8.88 26.2995 11.18 25.6195 12.1 25.1995C12.24 24.1595 12.66 23.4595 13.12 23.0595C9.56 22.6595 5.84 21.2795 5.84 15.1595C5.84 13.4195 6.46 11.9795 7.48 10.8595C7.32 10.4595 6.76 8.81951 7.64 6.61951C7.64 6.61951 8.98 6.19951 12.04 8.25951C13.32 7.89951 14.68 7.71951 16.04 7.71951C17.4 7.71951 18.76 7.89951 20.04 8.25951C23.1 6.17951 24.44 6.61951 24.44 6.61951C25.32 8.81951 24.76 10.4595 24.6 10.8595C25.62 11.9795 26.24 13.3995 26.24 15.1595C26.24 21.2995 22.5 22.6595 18.94 23.0595C19.52 23.5595 20.02 24.5195 20.02 26.0195C20.02 28.1595 20 29.8795 20 30.4195C20 30.8395 20.3 31.3395 21.1 31.1795C24.2762 30.1071 27.0362 28.0658 28.9916 25.3427C30.9469 22.6196 31.999 19.3519 32 15.9995C32 7.15951 24.84 -0.000488281 16 -0.000488281Z" fill="url(#paint0_linear_108_662)"/>
<defs>
<linearGradient id="paint0_linear_108_662" x1="16" y1="-0.000488281" x2="16" y2="31.2101" gradientUnits="userSpaceOnUse">
<stop stop-color="#8B008C"/>
<stop offset="1" stop-color="#F83A67"/>
</linearGradient>
</defs>
</svg>
