<svg width="174" height="49" viewBox="0 0 174 49" fill="none" xmlns="http://www.w3.org/2000/svg">
<path d="M14.2504 17.0321C14.2504 16.7275 14.16 16.4298 13.9908 16.1766C13.8215 15.9234 13.5809 15.726 13.2994 15.6095C13.018 15.493 12.7083 15.4627 12.4095 15.5222C12.1108 15.5818 11.8365 15.7286 11.6212 15.9441C11.4059 16.1597 11.2594 16.4342 11.2003 16.733C11.1411 17.0318 11.1718 17.3415 11.2887 17.6228C11.4055 17.9041 11.6031 18.1444 11.8566 18.3134C12.11 18.4823 12.4078 18.5723 12.7123 18.572M14.2504 17.0321C14.2506 17.2342 14.211 17.4344 14.1338 17.6211C14.0567 17.808 13.9434 17.9778 13.8005 18.1208C13.6577 18.2638 13.488 18.3773 13.3013 18.4547C13.1146 18.5321 12.9145 18.572 12.7123 18.572M14.2504 17.0321C14.2504 17.0322 14.2504 17.0322 14.2504 17.0322L14.0004 17.0322L14.2504 17.0321ZM12.7123 18.572C12.7123 18.572 12.7123 18.572 12.7122 18.572V18.322L12.7125 18.572C12.7125 18.572 12.7124 18.572 12.7123 18.572Z" fill="url(#paint0_linear_108_611)" stroke="white" stroke-width="0.5"/>
<path d="M18.7492 13.0851V13.0849C18.7496 12.6056 18.6078 12.137 18.3417 11.7383C18.0757 11.3396 17.6974 11.0288 17.2547 10.8451C16.812 10.6614 16.3248 10.6132 15.8547 10.7065C15.3845 10.7998 14.9526 11.0304 14.6136 11.3692C14.2746 11.708 14.0436 12.1397 13.95 12.6098C13.8564 13.0798 13.9043 13.5671 14.0876 14.0099C14.2709 14.4528 14.5815 14.8313 14.98 15.0976C15.3785 15.3639 15.847 15.5061 16.3263 15.5061H16.3265C16.9686 15.5056 17.5843 15.2504 18.0385 14.7966C18.4927 14.3427 18.7483 13.7272 18.7492 13.0851Z" fill="url(#paint1_linear_108_611)" stroke="white" stroke-width="0.5"/>
<path d="M14.3371 8.67203C14.3371 8.19282 14.195 7.72437 13.9288 7.32592C13.6625 6.92746 13.2841 6.61691 12.8414 6.43352C12.3986 6.25013 11.9115 6.20215 11.4415 6.29564C10.9715 6.38913 10.5397 6.6199 10.2009 6.95875C9.86202 7.29761 9.63126 7.72933 9.53777 8.19934C9.44428 8.66935 9.49226 9.15652 9.67565 9.59926C9.85903 10.042 10.1696 10.4204 10.568 10.6866C10.9665 10.9529 11.4349 11.095 11.9142 11.095C12.2323 11.095 12.5474 11.0323 12.8414 10.9105C13.1353 10.7888 13.4025 10.6103 13.6274 10.3853C13.8524 10.1603 14.0309 9.89322 14.1527 9.59926C14.2744 9.30529 14.3371 8.99022 14.3371 8.67203Z" fill="url(#paint2_linear_108_611)" stroke="white" stroke-width="0.5"/>
<path d="M23.686 6.79249C23.6863 6.0928 23.4791 5.40872 23.0907 4.82679C22.7022 4.24485 22.1498 3.7912 21.5035 3.52321C20.8572 3.25521 20.1459 3.18492 19.4596 3.32121C18.7733 3.4575 18.1429 3.79427 17.648 4.2889C17.1531 4.78354 16.8161 5.41382 16.6794 6.10004C16.5428 6.78626 16.6127 7.49759 16.8804 8.14405C17.1481 8.79051 17.6015 9.34307 18.1832 9.73183C18.765 10.1206 19.449 10.3281 20.1486 10.3281C21.0865 10.3281 21.986 9.95565 22.6493 9.29264C23.3126 8.62964 23.6855 7.73035 23.686 6.79249Z" fill="url(#paint3_linear_108_611)" stroke="white" stroke-width="0.5"/>
<path d="M7.67762 22.9151C7.67797 22.4636 7.54439 22.022 7.29379 21.6464C7.04318 21.2708 6.68681 20.978 6.26974 20.8049C5.85267 20.6319 5.39364 20.5864 4.95073 20.6743C4.50783 20.7622 4.10093 20.9794 3.78151 21.2986C3.4621 21.6178 3.24452 22.0245 3.1563 22.4673C3.06808 22.9102 3.11317 23.3692 3.28589 23.7864C3.45861 24.2036 3.75118 24.5602 4.1266 24.8111C4.50202 25.062 4.94342 25.196 5.39496 25.196C6.00005 25.196 6.58038 24.9557 7.00841 24.528C7.43644 24.1003 7.67714 23.5202 7.67762 22.9151Z" fill="url(#paint4_linear_108_611)" stroke="white" stroke-width="0.5"/>
<path d="M6.85566 16.5156C7.04805 16.8035 7.15074 17.1419 7.15075 17.4882L6.85566 16.5156ZM6.85566 16.5156C6.66327 16.2278 6.38982 16.0035 6.0699 15.8711M6.85566 16.5156L6.0699 15.8711M6.0699 15.8711C5.74999 15.7386 5.39799 15.7041 5.05844 15.7718M6.0699 15.8711L5.05844 15.7718M5.05844 15.7718C4.71889 15.8395 4.40704 16.0063 4.16235 16.2513M5.05844 15.7718L4.16235 16.2513M4.16235 16.2513C3.91766 16.4962 3.75111 16.8083 3.68379 17.1479M4.16235 16.2513L3.68379 17.1479M3.68379 17.1479C3.61647 17.4875 3.6514 17.8395 3.78415 18.1592M3.68379 17.1479L3.78415 18.1592M3.78415 18.1592C3.9169 18.479 4.14152 18.7522 4.42958 18.9443M3.78415 18.1592L4.42958 18.9443M4.42958 18.9443C4.71756 19.1363 5.05603 19.2387 5.40216 19.2384L4.42958 18.9443ZM5.40219 19.2384C5.63197 19.2384 5.85949 19.1931 6.07175 19.1051C6.28402 19.0171 6.47686 18.8881 6.63926 18.7256C6.80166 18.563 6.93042 18.37 7.01818 18.1576C7.10591 17.9454 7.15096 17.7179 7.15075 17.4882L5.40219 19.2384Z" fill="url(#paint5_linear_108_611)" stroke="white" stroke-width="0.5"/>
<path d="M3.34164 14.5945C3.34164 14.3382 3.26559 14.0875 3.12312 13.8744C2.98065 13.6613 2.77815 13.4952 2.54125 13.3972C2.30436 13.2991 2.04371 13.2736 1.79229 13.3238C1.54087 13.3739 1.30998 13.4975 1.12884 13.6789C0.947694 13.8604 0.824435 14.0914 0.774659 14.3429C0.724883 14.5944 0.750826 14.855 0.849207 15.0918C0.947588 15.3285 1.11398 15.5308 1.32734 15.6729C1.5407 15.8151 1.79142 15.8907 2.0478 15.8903C2.39113 15.8898 2.72022 15.7531 2.9628 15.5101C3.20539 15.2672 3.34164 14.9379 3.34164 14.5945Z" fill="url(#paint6_linear_108_611)" stroke="white" stroke-width="0.5"/>
<path d="M13.0878 35.2416C15.2446 34.6745 16.5334 32.4665 15.9663 30.3097C15.3993 28.1529 13.1912 26.8641 11.0344 27.4312C8.87764 27.9982 7.58889 30.2063 8.15592 32.3631C8.72295 34.5199 10.931 35.8086 13.0878 35.2416Z" fill="url(#paint7_linear_108_611)" stroke="white" stroke-width="0.5"/>
<path d="M17.5338 39.128C18.8156 39.128 19.8547 38.0889 19.8547 36.8071C19.8547 35.5253 18.8156 34.4862 17.5338 34.4862C16.252 34.4862 15.2129 35.5253 15.2129 36.8071C15.2129 38.0889 16.252 39.128 17.5338 39.128Z" fill="url(#paint8_linear_108_611)" stroke="white" stroke-width="0.5"/>
<path d="M15.0533 22.9152V22.915C15.0536 22.3236 14.8786 21.7453 14.5502 21.2533C14.2219 20.7613 13.7551 20.3778 13.2088 20.1511C12.6625 19.9244 12.0612 19.8649 11.4811 19.9799C10.9009 20.095 10.3679 20.3795 9.94939 20.7975C9.53092 21.2154 9.24579 21.7481 9.13007 22.3282C9.01434 22.9082 9.07321 23.5095 9.29924 24.0561C9.52527 24.6027 9.90829 25.0699 10.3999 25.3988C10.8915 25.7277 11.4696 25.9034 12.061 25.9038H12.0612C12.8541 25.9038 13.6146 25.589 14.1757 25.0287C14.7367 24.4683 15.0523 23.7081 15.0533 22.9152Z" fill="url(#paint9_linear_108_611)" stroke="white" stroke-width="0.5"/>
<mask id="path-11-outside-1_108_611" maskUnits="userSpaceOnUse" x="6.30762" y="0" width="69" height="49" fill="black">
<rect fill="white" x="6.30762" width="69" height="49"/>
<path d="M61.407 4.70231C50.9249 -4.16166 49.4502 5.6748 40.7488 5.6748C32.9498 5.6748 30.9554 -2.22625 23.0767 2.52139C23.9833 3.14195 24.6689 4.03485 25.0344 5.0709C25.3999 6.10695 25.4263 7.23241 25.1097 8.28445C24.7932 9.33648 24.1502 10.2605 23.2737 10.9229C22.3972 11.5853 21.3327 11.9516 20.2342 11.9689C20.4089 12.5738 20.4404 13.2111 20.3262 13.8304C20.2119 14.4496 19.955 15.0337 19.5759 15.5365C19.1967 16.0392 18.7057 16.4467 18.1418 16.7268C17.5778 17.0069 16.9564 17.1518 16.3267 17.1501C16.1808 17.1502 16.0349 17.1423 15.8899 17.1262C15.8674 17.9434 15.5298 18.7203 14.9477 19.2944C15.4873 19.7229 15.9244 20.2666 16.2268 20.8858C16.5293 21.505 16.6895 22.1839 16.6958 22.873C16.702 23.5621 16.5542 24.2438 16.263 24.8684C15.9719 25.493 15.5448 26.0445 15.013 26.4828C16.0685 27.1238 16.8861 28.0915 17.3418 29.2392C17.7975 30.3868 17.8665 31.6518 17.5383 32.8422C18.3221 32.8432 19.088 33.0764 19.7393 33.5124C20.3906 33.9485 20.898 34.5677 21.1975 35.292C21.497 36.0163 21.5751 36.8131 21.422 37.5818C21.2689 38.3504 20.8913 39.0565 20.3371 39.6107C19.7829 40.1649 19.0769 40.5424 18.3082 40.6956C17.5396 40.8487 16.7427 40.7706 16.0185 40.4711C15.2942 40.1716 14.6749 39.6641 14.2389 39.0129C13.8028 38.3616 13.5696 37.5957 13.5687 36.8119C12.4086 37.1317 11.1769 37.0744 10.0515 36.6483C8.92613 36.2221 7.96539 35.4492 7.30809 34.4413C7.28577 38.5209 8.05579 42.2084 9.78554 44.9521C15.9265 54.6897 25.924 34.0634 40.7488 34.0634C55.5737 34.0634 65.568 54.6897 71.7138 44.9521C77.8595 35.2145 71.8907 13.5679 61.407 4.70231ZM34.8231 21.0879H31.794V24.117C31.794 24.7121 31.5576 25.2828 31.1368 25.7036C30.716 26.1244 30.1452 26.3609 29.5501 26.3609C28.955 26.3609 28.3843 26.1244 27.9634 25.7036C27.5426 25.2828 27.3062 24.7121 27.3062 24.117V21.0879H24.2772C23.9779 21.0959 23.68 21.0438 23.4012 20.9348C23.1224 20.8258 22.8682 20.662 22.6537 20.4532C22.4392 20.2443 22.2687 19.9946 22.1523 19.7188C22.0359 19.4429 21.9759 19.1466 21.9759 18.8472C21.9759 18.5478 22.0359 18.2515 22.1523 17.9756C22.2687 17.6998 22.4392 17.4501 22.6537 17.2412C22.8682 17.0324 23.1224 16.8686 23.4012 16.7596C23.68 16.6506 23.9779 16.5985 24.2772 16.6065H27.3062V13.5774C27.3218 12.9935 27.5647 12.4387 27.9832 12.0312C28.4017 11.6237 28.9628 11.3957 29.5469 11.3957C30.1311 11.3957 30.6921 11.6237 31.1106 12.0312C31.5291 12.4387 31.7721 12.9935 31.7876 13.5774V16.6065H34.8167C35.4006 16.6221 35.9554 16.865 36.3629 17.2835C36.7704 17.702 36.9984 18.2631 36.9984 18.8472C36.9984 19.4313 36.7704 19.9924 36.3629 20.4109C35.9554 20.8294 35.4006 21.0723 34.8167 21.0879H34.8231ZM46.6762 21.0879C46.2324 21.0882 45.7985 20.9568 45.4295 20.7102C45.0605 20.4637 44.7729 20.1132 44.6033 19.7031C44.4337 19.293 44.3896 18.8417 44.4767 18.4066C44.5638 17.9714 44.7781 17.5719 45.0925 17.2586C45.4069 16.9453 45.8072 16.7325 46.2426 16.6469C46.6781 16.5614 47.1292 16.6071 47.5387 16.7781C47.9482 16.9492 48.2977 17.238 48.5429 17.6079C48.7881 17.9778 48.918 18.4122 48.9161 18.856C48.914 19.4486 48.6771 20.0163 48.2573 20.4347C47.8374 20.853 47.2689 21.0879 46.6762 21.0879ZM51.9484 26.3489C51.5046 26.3492 51.0707 26.2178 50.7016 25.9712C50.3326 25.7247 50.0451 25.3742 49.8755 24.9641C49.7059 24.5539 49.6618 24.1027 49.7489 23.6675C49.836 23.2324 50.0503 22.8328 50.3647 22.5196C50.679 22.2063 51.0793 21.9935 51.5148 21.9079C51.9503 21.8224 52.4013 21.868 52.8109 22.0391C53.2204 22.2102 53.5699 22.499 53.8151 22.8689C54.0603 23.2388 54.1902 23.6732 54.1883 24.117C54.1858 24.7095 53.9487 25.2769 53.529 25.6952C53.1092 26.1134 52.5409 26.3485 51.9484 26.3489ZM51.9484 15.8046C51.505 15.8049 51.0715 15.6737 50.7026 15.4276C50.3338 15.1815 50.0463 14.8315 49.8764 14.422C49.7065 14.0124 49.6619 13.5617 49.7482 13.1268C49.8345 12.6919 50.0478 12.2923 50.3612 11.9787C50.6747 11.665 51.0741 11.4514 51.5089 11.3648C51.9438 11.2782 52.3945 11.3225 52.8042 11.4921C53.2139 11.6617 53.564 11.949 53.8104 12.3176C54.0568 12.6863 54.1883 13.1197 54.1883 13.5631C54.1891 13.8579 54.1318 14.1499 54.0196 14.4225C53.9075 14.6951 53.7426 14.9428 53.5346 15.1516C53.3265 15.3604 53.0793 15.5261 52.8072 15.6393C52.535 15.7524 52.2431 15.8108 51.9484 15.811V15.8046ZM57.2205 21.0879C56.7768 21.0879 56.343 20.9562 55.9742 20.7095C55.6054 20.4627 55.3181 20.1121 55.1488 19.702C54.9794 19.2918 54.9356 18.8406 55.0228 18.4056C55.1101 17.9705 55.3245 17.5711 55.639 17.258C55.9534 16.9449 56.3537 16.7322 56.7891 16.6468C57.2246 16.5614 57.6756 16.6072 58.085 16.7783C58.4944 16.9494 58.8438 17.2382 59.0889 17.6081C59.3341 17.9779 59.4639 18.4122 59.462 18.856C59.4599 19.4489 59.2228 20.0168 58.8026 20.4352C58.3824 20.8536 57.8135 21.0883 57.2205 21.0879Z"/>
</mask>
<path d="M61.407 4.70231C50.9249 -4.16166 49.4502 5.6748 40.7488 5.6748C32.9498 5.6748 30.9554 -2.22625 23.0767 2.52139C23.9833 3.14195 24.6689 4.03485 25.0344 5.0709C25.3999 6.10695 25.4263 7.23241 25.1097 8.28445C24.7932 9.33648 24.1502 10.2605 23.2737 10.9229C22.3972 11.5853 21.3327 11.9516 20.2342 11.9689C20.4089 12.5738 20.4404 13.2111 20.3262 13.8304C20.2119 14.4496 19.955 15.0337 19.5759 15.5365C19.1967 16.0392 18.7057 16.4467 18.1418 16.7268C17.5778 17.0069 16.9564 17.1518 16.3267 17.1501C16.1808 17.1502 16.0349 17.1423 15.8899 17.1262C15.8674 17.9434 15.5298 18.7203 14.9477 19.2944C15.4873 19.7229 15.9244 20.2666 16.2268 20.8858C16.5293 21.505 16.6895 22.1839 16.6958 22.873C16.702 23.5621 16.5542 24.2438 16.263 24.8684C15.9719 25.493 15.5448 26.0445 15.013 26.4828C16.0685 27.1238 16.8861 28.0915 17.3418 29.2392C17.7975 30.3868 17.8665 31.6518 17.5383 32.8422C18.3221 32.8432 19.088 33.0764 19.7393 33.5124C20.3906 33.9485 20.898 34.5677 21.1975 35.292C21.497 36.0163 21.5751 36.8131 21.422 37.5818C21.2689 38.3504 20.8913 39.0565 20.3371 39.6107C19.7829 40.1649 19.0769 40.5424 18.3082 40.6956C17.5396 40.8487 16.7427 40.7706 16.0185 40.4711C15.2942 40.1716 14.6749 39.6641 14.2389 39.0129C13.8028 38.3616 13.5696 37.5957 13.5687 36.8119C12.4086 37.1317 11.1769 37.0744 10.0515 36.6483C8.92613 36.2221 7.96539 35.4492 7.30809 34.4413C7.28577 38.5209 8.05579 42.2084 9.78554 44.9521C15.9265 54.6897 25.924 34.0634 40.7488 34.0634C55.5737 34.0634 65.568 54.6897 71.7138 44.9521C77.8595 35.2145 71.8907 13.5679 61.407 4.70231ZM34.8231 21.0879H31.794V24.117C31.794 24.7121 31.5576 25.2828 31.1368 25.7036C30.716 26.1244 30.1452 26.3609 29.5501 26.3609C28.955 26.3609 28.3843 26.1244 27.9634 25.7036C27.5426 25.2828 27.3062 24.7121 27.3062 24.117V21.0879H24.2772C23.9779 21.0959 23.68 21.0438 23.4012 20.9348C23.1224 20.8258 22.8682 20.662 22.6537 20.4532C22.4392 20.2443 22.2687 19.9946 22.1523 19.7188C22.0359 19.4429 21.9759 19.1466 21.9759 18.8472C21.9759 18.5478 22.0359 18.2515 22.1523 17.9756C22.2687 17.6998 22.4392 17.4501 22.6537 17.2412C22.8682 17.0324 23.1224 16.8686 23.4012 16.7596C23.68 16.6506 23.9779 16.5985 24.2772 16.6065H27.3062V13.5774C27.3218 12.9935 27.5647 12.4387 27.9832 12.0312C28.4017 11.6237 28.9628 11.3957 29.5469 11.3957C30.1311 11.3957 30.6921 11.6237 31.1106 12.0312C31.5291 12.4387 31.7721 12.9935 31.7876 13.5774V16.6065H34.8167C35.4006 16.6221 35.9554 16.865 36.3629 17.2835C36.7704 17.702 36.9984 18.2631 36.9984 18.8472C36.9984 19.4313 36.7704 19.9924 36.3629 20.4109C35.9554 20.8294 35.4006 21.0723 34.8167 21.0879H34.8231ZM46.6762 21.0879C46.2324 21.0882 45.7985 20.9568 45.4295 20.7102C45.0605 20.4637 44.7729 20.1132 44.6033 19.7031C44.4337 19.293 44.3896 18.8417 44.4767 18.4066C44.5638 17.9714 44.7781 17.5719 45.0925 17.2586C45.4069 16.9453 45.8072 16.7325 46.2426 16.6469C46.6781 16.5614 47.1292 16.6071 47.5387 16.7781C47.9482 16.9492 48.2977 17.238 48.5429 17.6079C48.7881 17.9778 48.918 18.4122 48.9161 18.856C48.914 19.4486 48.6771 20.0163 48.2573 20.4347C47.8374 20.853 47.2689 21.0879 46.6762 21.0879ZM51.9484 26.3489C51.5046 26.3492 51.0707 26.2178 50.7016 25.9712C50.3326 25.7247 50.0451 25.3742 49.8755 24.9641C49.7059 24.5539 49.6618 24.1027 49.7489 23.6675C49.836 23.2324 50.0503 22.8328 50.3647 22.5196C50.679 22.2063 51.0793 21.9935 51.5148 21.9079C51.9503 21.8224 52.4013 21.868 52.8109 22.0391C53.2204 22.2102 53.5699 22.499 53.8151 22.8689C54.0603 23.2388 54.1902 23.6732 54.1883 24.117C54.1858 24.7095 53.9487 25.2769 53.529 25.6952C53.1092 26.1134 52.5409 26.3485 51.9484 26.3489ZM51.9484 15.8046C51.505 15.8049 51.0715 15.6737 50.7026 15.4276C50.3338 15.1815 50.0463 14.8315 49.8764 14.422C49.7065 14.0124 49.6619 13.5617 49.7482 13.1268C49.8345 12.6919 50.0478 12.2923 50.3612 11.9787C50.6747 11.665 51.0741 11.4514 51.5089 11.3648C51.9438 11.2782 52.3945 11.3225 52.8042 11.4921C53.2139 11.6617 53.564 11.949 53.8104 12.3176C54.0568 12.6863 54.1883 13.1197 54.1883 13.5631C54.1891 13.8579 54.1318 14.1499 54.0196 14.4225C53.9075 14.6951 53.7426 14.9428 53.5346 15.1516C53.3265 15.3604 53.0793 15.5261 52.8072 15.6393C52.535 15.7524 52.2431 15.8108 51.9484 15.811V15.8046ZM57.2205 21.0879C56.7768 21.0879 56.343 20.9562 55.9742 20.7095C55.6054 20.4627 55.3181 20.1121 55.1488 19.702C54.9794 19.2918 54.9356 18.8406 55.0228 18.4056C55.1101 17.9705 55.3245 17.5711 55.639 17.258C55.9534 16.9449 56.3537 16.7322 56.7891 16.6468C57.2246 16.5614 57.6756 16.6072 58.085 16.7783C58.4944 16.9494 58.8438 17.2382 59.0889 17.6081C59.3341 17.9779 59.4639 18.4122 59.462 18.856C59.4599 19.4489 59.2228 20.0168 58.8026 20.4352C58.3824 20.8536 57.8135 21.0883 57.2205 21.0879Z" fill="url(#paint10_linear_108_611)"/>
<path d="M61.407 4.70231C50.9249 -4.16166 49.4502 5.6748 40.7488 5.6748C32.9498 5.6748 30.9554 -2.22625 23.0767 2.52139C23.9833 3.14195 24.6689 4.03485 25.0344 5.0709C25.3999 6.10695 25.4263 7.23241 25.1097 8.28445C24.7932 9.33648 24.1502 10.2605 23.2737 10.9229C22.3972 11.5853 21.3327 11.9516 20.2342 11.9689C20.4089 12.5738 20.4404 13.2111 20.3262 13.8304C20.2119 14.4496 19.955 15.0337 19.5759 15.5365C19.1967 16.0392 18.7057 16.4467 18.1418 16.7268C17.5778 17.0069 16.9564 17.1518 16.3267 17.1501C16.1808 17.1502 16.0349 17.1423 15.8899 17.1262C15.8674 17.9434 15.5298 18.7203 14.9477 19.2944C15.4873 19.7229 15.9244 20.2666 16.2268 20.8858C16.5293 21.505 16.6895 22.1839 16.6958 22.873C16.702 23.5621 16.5542 24.2438 16.263 24.8684C15.9719 25.493 15.5448 26.0445 15.013 26.4828C16.0685 27.1238 16.8861 28.0915 17.3418 29.2392C17.7975 30.3868 17.8665 31.6518 17.5383 32.8422C18.3221 32.8432 19.088 33.0764 19.7393 33.5124C20.3906 33.9485 20.898 34.5677 21.1975 35.292C21.497 36.0163 21.5751 36.8131 21.422 37.5818C21.2689 38.3504 20.8913 39.0565 20.3371 39.6107C19.7829 40.1649 19.0769 40.5424 18.3082 40.6956C17.5396 40.8487 16.7427 40.7706 16.0185 40.4711C15.2942 40.1716 14.6749 39.6641 14.2389 39.0129C13.8028 38.3616 13.5696 37.5957 13.5687 36.8119C12.4086 37.1317 11.1769 37.0744 10.0515 36.6483C8.92613 36.2221 7.96539 35.4492 7.30809 34.4413C7.28577 38.5209 8.05579 42.2084 9.78554 44.9521C15.9265 54.6897 25.924 34.0634 40.7488 34.0634C55.5737 34.0634 65.568 54.6897 71.7138 44.9521C77.8595 35.2145 71.8907 13.5679 61.407 4.70231ZM34.8231 21.0879H31.794V24.117C31.794 24.7121 31.5576 25.2828 31.1368 25.7036C30.716 26.1244 30.1452 26.3609 29.5501 26.3609C28.955 26.3609 28.3843 26.1244 27.9634 25.7036C27.5426 25.2828 27.3062 24.7121 27.3062 24.117V21.0879H24.2772C23.9779 21.0959 23.68 21.0438 23.4012 20.9348C23.1224 20.8258 22.8682 20.662 22.6537 20.4532C22.4392 20.2443 22.2687 19.9946 22.1523 19.7188C22.0359 19.4429 21.9759 19.1466 21.9759 18.8472C21.9759 18.5478 22.0359 18.2515 22.1523 17.9756C22.2687 17.6998 22.4392 17.4501 22.6537 17.2412C22.8682 17.0324 23.1224 16.8686 23.4012 16.7596C23.68 16.6506 23.9779 16.5985 24.2772 16.6065H27.3062V13.5774C27.3218 12.9935 27.5647 12.4387 27.9832 12.0312C28.4017 11.6237 28.9628 11.3957 29.5469 11.3957C30.1311 11.3957 30.6921 11.6237 31.1106 12.0312C31.5291 12.4387 31.7721 12.9935 31.7876 13.5774V16.6065H34.8167C35.4006 16.6221 35.9554 16.865 36.3629 17.2835C36.7704 17.702 36.9984 18.2631 36.9984 18.8472C36.9984 19.4313 36.7704 19.9924 36.3629 20.4109C35.9554 20.8294 35.4006 21.0723 34.8167 21.0879H34.8231ZM46.6762 21.0879C46.2324 21.0882 45.7985 20.9568 45.4295 20.7102C45.0605 20.4637 44.7729 20.1132 44.6033 19.7031C44.4337 19.293 44.3896 18.8417 44.4767 18.4066C44.5638 17.9714 44.7781 17.5719 45.0925 17.2586C45.4069 16.9453 45.8072 16.7325 46.2426 16.6469C46.6781 16.5614 47.1292 16.6071 47.5387 16.7781C47.9482 16.9492 48.2977 17.238 48.5429 17.6079C48.7881 17.9778 48.918 18.4122 48.9161 18.856C48.914 19.4486 48.6771 20.0163 48.2573 20.4347C47.8374 20.853 47.2689 21.0879 46.6762 21.0879ZM51.9484 26.3489C51.5046 26.3492 51.0707 26.2178 50.7016 25.9712C50.3326 25.7247 50.0451 25.3742 49.8755 24.9641C49.7059 24.5539 49.6618 24.1027 49.7489 23.6675C49.836 23.2324 50.0503 22.8328 50.3647 22.5196C50.679 22.2063 51.0793 21.9935 51.5148 21.9079C51.9503 21.8224 52.4013 21.868 52.8109 22.0391C53.2204 22.2102 53.5699 22.499 53.8151 22.8689C54.0603 23.2388 54.1902 23.6732 54.1883 24.117C54.1858 24.7095 53.9487 25.2769 53.529 25.6952C53.1092 26.1134 52.5409 26.3485 51.9484 26.3489ZM51.9484 15.8046C51.505 15.8049 51.0715 15.6737 50.7026 15.4276C50.3338 15.1815 50.0463 14.8315 49.8764 14.422C49.7065 14.0124 49.6619 13.5617 49.7482 13.1268C49.8345 12.6919 50.0478 12.2923 50.3612 11.9787C50.6747 11.665 51.0741 11.4514 51.5089 11.3648C51.9438 11.2782 52.3945 11.3225 52.8042 11.4921C53.2139 11.6617 53.564 11.949 53.8104 12.3176C54.0568 12.6863 54.1883 13.1197 54.1883 13.5631C54.1891 13.8579 54.1318 14.1499 54.0196 14.4225C53.9075 14.6951 53.7426 14.9428 53.5346 15.1516C53.3265 15.3604 53.0793 15.5261 52.8072 15.6393C52.535 15.7524 52.2431 15.8108 51.9484 15.811V15.8046ZM57.2205 21.0879C56.7768 21.0879 56.343 20.9562 55.9742 20.7095C55.6054 20.4627 55.3181 20.1121 55.1488 19.702C54.9794 19.2918 54.9356 18.8406 55.0228 18.4056C55.1101 17.9705 55.3245 17.5711 55.639 17.258C55.9534 16.9449 56.3537 16.7322 56.7891 16.6468C57.2246 16.5614 57.6756 16.6072 58.085 16.7783C58.4944 16.9494 58.8438 17.2382 59.0889 17.6081C59.3341 17.9779 59.4639 18.4122 59.462 18.856C59.4599 19.4489 59.2228 20.0168 58.8026 20.4352C58.3824 20.8536 57.8135 21.0883 57.2205 21.0879Z" stroke="white" mask="url(#path-11-outside-1_108_611)"/>
<path d="M113.887 3.05557V14.7796C113.887 16.3805 113.443 17.6243 112.557 18.5111C111.67 19.3978 110.442 19.8412 108.872 19.8412C107.177 19.8412 105.835 19.3507 104.846 18.3698C103.858 17.3889 103.367 15.9999 103.375 14.2028H106.636C106.636 15.0504 106.812 15.7036 107.165 16.1568C107.353 16.3876 107.593 16.5701 107.865 16.6889C108.137 16.8077 108.434 16.8594 108.731 16.8396C108.989 16.861 109.249 16.8223 109.491 16.7263C109.732 16.6303 109.947 16.4797 110.12 16.2863C110.44 15.847 110.598 15.3105 110.567 14.7678V3.05557H113.887Z" fill="#FDFDFD"/>
<path d="M126.232 7.26979C127.235 7.79568 128.065 8.60112 128.621 9.58871C129.193 10.6884 129.492 11.9098 129.492 13.1495C129.492 14.3891 129.193 15.6106 128.621 16.7102C128.062 17.6953 127.233 18.4999 126.232 19.0291C125.169 19.5631 123.996 19.8412 122.806 19.8412C121.617 19.8412 120.444 19.5631 119.381 19.0291C118.38 18.4989 117.551 17.6946 116.991 16.7102C116.419 15.6106 116.12 14.3891 116.12 13.1495C116.12 11.9098 116.419 10.6884 116.991 9.58871C117.548 8.60184 118.378 7.79664 119.381 7.26979C120.446 6.74334 121.618 6.46948 122.806 6.46948C123.994 6.46948 125.166 6.74334 126.232 7.26979ZM120.452 10.3185C119.81 10.9718 119.489 11.9174 119.487 13.1554C119.485 14.3933 119.806 15.3389 120.452 15.9922C120.761 16.3018 121.128 16.5475 121.532 16.7151C121.936 16.8827 122.369 16.969 122.806 16.969C123.244 16.969 123.677 16.8827 124.081 16.7151C124.485 16.5475 124.852 16.3018 125.16 15.9922C125.804 15.3428 126.126 14.3972 126.126 13.1554C126.126 11.9135 125.804 10.9679 125.16 10.3185C124.852 10.0089 124.485 9.76321 124.081 9.59559C123.677 9.42797 123.244 9.34169 122.806 9.34169C122.369 9.34169 121.936 9.42797 121.532 9.59559C121.128 9.76321 120.761 10.0089 120.452 10.3185Z" fill="#FDFDFD"/>
<path d="M134.086 6.64294L137.638 15.4948L140.934 6.64294H144.583L136.59 25.8917H132.929L135.872 19.2999L130.39 6.64589L134.086 6.64294Z" fill="#FDFDFD"/>
<path d="M93.4862 28.7827C95.0876 29.969 96.1923 31.7071 96.5865 33.6607H92.3627C91.9715 32.7578 91.3109 31.9979 90.4712 31.4848C89.5504 30.928 88.4894 30.6467 87.4136 30.6742C86.3362 30.6542 85.2738 30.9296 84.3418 31.4706C83.4441 32.0122 82.7228 32.8026 82.2655 33.746C81.7526 34.8295 81.4994 36.0176 81.5259 37.216C81.5259 39.3208 82.09 40.961 83.2183 42.1367C84.3465 43.3123 85.8872 43.9049 87.8403 43.9144C89.191 43.9465 90.5083 43.4923 91.5521 42.6344C92.6201 41.7239 93.3307 40.4641 93.5573 39.0791H86.7737V36.2063H96.9278V40.0746C96.6439 41.4032 96.0763 42.6548 95.2639 43.7437C94.4129 44.8854 93.3011 45.807 92.0214 46.4316C90.5917 47.1271 89.0174 47.4732 87.4278 47.4413C85.6042 47.4792 83.8032 47.0326 82.2086 46.1472C80.7185 45.304 79.5037 44.0484 78.7101 42.5313C77.8961 40.8815 77.4727 39.0664 77.4727 37.2267C77.4727 35.387 77.8961 33.5719 78.7101 31.9221C79.5066 30.4091 80.7144 29.152 82.1943 28.2956C83.7759 27.4005 85.5682 26.945 87.3852 26.9766C89.8408 26.9766 91.8744 27.5786 93.4862 28.7827Z" fill="#FDFDFD"/>
<path d="M112.173 43.2176H104.124L102.702 47.2565H98.4639L105.873 27.4033H110.453L117.819 47.2565H113.567L112.173 43.2176ZM111.107 40.1742L108.149 31.6981L105.162 40.1742H111.107Z" fill="#FDFDFD"/>
<path d="M141.612 27.4033V47.2565H137.63V33.3905L132.539 47.2565H129.069L123.977 33.4616V47.2565H119.967V27.4033H124.831L130.875 42.3358L136.791 27.4033H141.612Z" fill="#FDFDFD"/>
<path d="M149.248 30.3614V35.5665H156.359V38.6383H149.248V44.0425H157.212V47.2423H145.252V27.1758H157.226V30.3756L149.248 30.3614Z" fill="#FDFDFD"/>
<path d="M173.212 44.5972C172.667 45.4924 171.878 46.2129 170.936 46.6735C169.794 47.2257 168.535 47.4941 167.267 47.4557C165.961 47.4825 164.664 47.2404 163.456 46.7446C162.388 46.302 161.46 45.5799 160.768 44.654C160.086 43.7197 159.686 42.6091 159.616 41.4542H163.882C163.957 42.2272 164.305 42.9482 164.864 43.4879C165.163 43.766 165.514 43.9819 165.898 44.1229C166.281 44.2639 166.688 44.3272 167.096 44.3092C167.445 44.3333 167.795 44.2865 168.125 44.1717C168.455 44.0568 168.758 43.8762 169.016 43.6408C169.239 43.4146 169.413 43.1454 169.528 42.8494C169.643 42.5535 169.697 42.2372 169.685 41.92C169.705 41.3538 169.512 40.8006 169.144 40.3698C168.764 39.9493 168.299 39.6147 167.779 39.3885C167.227 39.1515 166.468 38.8671 165.504 38.5353C164.45 38.1999 163.424 37.7863 162.432 37.298C161.62 36.879 160.922 36.269 160.398 35.5203C159.803 34.6203 159.51 33.5546 159.559 32.4769C159.526 31.6979 159.678 30.9223 160.002 30.213C160.326 29.5038 160.812 28.881 161.422 28.3953C162.664 27.3998 164.309 26.9021 166.357 26.9021C168.49 26.9021 170.183 27.414 171.434 28.438C172.052 28.9379 172.56 29.5595 172.927 30.2641C173.294 30.9687 173.512 31.7413 173.567 32.5338H169.258C169.166 31.855 168.845 31.228 168.348 30.7561C167.793 30.2651 167.069 30.01 166.329 30.045C165.685 30.0186 165.054 30.2257 164.551 30.6281C164.142 31.0434 163.9 31.5947 163.871 32.1769C163.842 32.7591 164.029 33.3315 164.394 33.7853C164.769 34.1924 165.224 34.5169 165.731 34.7381C166.45 35.0537 167.186 35.329 167.936 35.563C169.007 35.9285 170.056 36.3559 171.079 36.8429C171.903 37.2543 172.612 37.8654 173.141 38.6206C173.747 39.5478 174.045 40.6426 173.994 41.7493C174.001 42.7526 173.73 43.7382 173.212 44.5972Z" fill="#FDFDFD"/>
<defs>
<linearGradient id="paint0_linear_108_611" x1="12.1372" y1="16.9348" x2="13.6091" y2="17.076" gradientUnits="userSpaceOnUse">
<stop stop-color="#EE3782"/>
<stop offset="1" stop-color="#883289"/>
</linearGradient>
<linearGradient id="paint1_linear_108_611" x1="15.3602" y1="12.9189" x2="17.84" y2="13.1569" gradientUnits="userSpaceOnUse">
<stop stop-color="#EE3782"/>
<stop offset="1" stop-color="#883289"/>
</linearGradient>
<linearGradient id="paint2_linear_108_611" x1="10.9481" y1="8.5078" x2="13.4279" y2="8.7458" gradientUnits="userSpaceOnUse">
<stop stop-color="#EE3782"/>
<stop offset="1" stop-color="#883289"/>
</linearGradient>
<linearGradient id="paint3_linear_108_611" x1="18.6872" y1="6.5423" x2="22.4386" y2="6.90237" gradientUnits="userSpaceOnUse">
<stop stop-color="#EE3782"/>
<stop offset="1" stop-color="#883289"/>
</linearGradient>
<linearGradient id="paint4_linear_108_611" x1="4.49127" y1="22.7597" x2="6.81093" y2="22.9823" gradientUnits="userSpaceOnUse">
<stop stop-color="#EE3782"/>
<stop offset="1" stop-color="#883289"/>
</linearGradient>
<linearGradient id="paint5_linear_108_611" x1="4.73361" y1="17.3748" x2="6.44561" y2="17.5391" gradientUnits="userSpaceOnUse">
<stop stop-color="#EE3782"/>
<stop offset="1" stop-color="#883289"/>
</linearGradient>
<linearGradient id="paint6_linear_108_611" x1="1.58086" y1="14.5155" x2="2.77435" y2="14.63" gradientUnits="userSpaceOnUse">
<stop stop-color="#EE3782"/>
<stop offset="1" stop-color="#883289"/>
</linearGradient>
<linearGradient id="paint7_linear_108_611" x1="10.3596" y1="31.4877" x2="14.6458" y2="30.7898" gradientUnits="userSpaceOnUse">
<stop stop-color="#EE3782"/>
<stop offset="1" stop-color="#883289"/>
</linearGradient>
<linearGradient id="paint8_linear_108_611" x1="16.6131" y1="36.6506" x2="18.9764" y2="36.8774" gradientUnits="userSpaceOnUse">
<stop stop-color="#EE3782"/>
<stop offset="1" stop-color="#883289"/>
</linearGradient>
<linearGradient id="paint9_linear_108_611" x1="10.8444" y1="22.7062" x2="13.9718" y2="23.0063" gradientUnits="userSpaceOnUse">
<stop stop-color="#EE3782"/>
<stop offset="1" stop-color="#883289"/>
</linearGradient>
<linearGradient id="paint10_linear_108_611" x1="25.8824" y1="22.5222" x2="63.6806" y2="27.7334" gradientUnits="userSpaceOnUse">
<stop stop-color="#EE3782"/>
<stop offset="1" stop-color="#883289"/>
</linearGradient>
</defs>
</svg>
