<svg width="28" height="22" viewBox="0 0 28 22" fill="none" xmlns="http://www.w3.org/2000/svg">
<path d="M3.82868 4.68476C3.84502 4.52245 3.82314 4.35857 3.7648 4.20622C3.70645 4.05388 3.61326 3.91731 3.49268 3.80743L1.00202 0.784764V0.332764H8.73268L14.7087 13.5394L19.962 0.332764H27.3327V0.784764L25.2034 2.83943C25.1131 2.90909 25.0435 3.00196 25.0019 3.1081C24.9604 3.21425 24.9484 3.32969 24.9674 3.4421V18.5541C24.9484 18.6665 24.9604 18.7819 25.0019 18.8881C25.0435 18.9942 25.1131 19.0871 25.2034 19.1568L27.2833 21.2128V21.6661H16.8247V21.2141L18.9793 19.1074C19.1913 18.8941 19.1913 18.8314 19.1913 18.5061V6.2901L13.202 21.6154H12.394L5.42068 6.2901V16.5621C5.36335 16.9928 5.50602 17.4288 5.80735 17.7408L8.60868 21.1648V21.6154H0.666016V21.1648L3.46602 17.7408C3.61417 17.5862 3.72412 17.3991 3.78709 17.1944C3.85006 16.9898 3.8643 16.7732 3.82868 16.5621V4.68476Z" fill="url(#paint0_linear_108_670)"/>
<defs>
<linearGradient id="paint0_linear_108_670" x1="13.9993" y1="0.332764" x2="13.9993" y2="21.6661" gradientUnits="userSpaceOnUse">
<stop stop-color="#8B008C"/>
<stop offset="1" stop-color="#F83A67"/>
</linearGradient>
</defs>
</svg>
