<svg width="31" height="26" viewBox="0 0 31 26" fill="none" xmlns="http://www.w3.org/2000/svg">
<path d="M30.5247 3.5822C29.4113 4.07553 28.2153 4.40887 26.958 4.55953C28.2553 3.78326 29.2259 2.56149 29.6887 1.1222C28.4698 1.84619 27.1358 2.35579 25.7447 2.62887C24.8092 1.63002 23.5701 0.967968 22.2198 0.745498C20.8695 0.523029 19.4835 0.752588 18.277 1.39854C17.0705 2.04448 16.111 3.07068 15.5475 4.3178C14.984 5.56493 14.848 6.9632 15.1607 8.29553C12.6909 8.17153 10.2748 7.5296 8.06923 6.41141C5.86363 5.29321 3.91779 3.72375 2.358 1.80487C1.82467 2.72487 1.518 3.79153 1.518 4.92753C1.51741 5.95019 1.76924 6.95719 2.25117 7.85918C2.7331 8.76116 3.43022 9.53025 4.28067 10.0982C3.29437 10.0668 2.32983 9.80031 1.46733 9.32087V9.40086C1.46723 10.8352 1.96338 12.2254 2.87158 13.3355C3.77978 14.4457 5.0441 15.2074 6.45 15.4915C5.53505 15.7392 4.57578 15.7756 3.64467 15.5982C4.04133 16.8323 4.81399 17.9116 5.85449 18.6848C6.89499 19.458 8.15122 19.8864 9.44733 19.9102C7.24711 21.6374 4.52985 22.5743 1.73267 22.5702C1.23717 22.5703 0.742102 22.5414 0.25 22.4835C3.0893 24.3091 6.39445 25.278 9.77 25.2742C21.1967 25.2742 27.4433 15.8102 27.4433 7.6022C27.4433 7.33553 27.4367 7.0662 27.4247 6.79953C28.6397 5.92083 29.6885 4.83273 30.522 3.5862L30.5247 3.5822Z" fill="url(#paint0_linear_108_673)"/>
<defs>
<linearGradient id="paint0_linear_108_673" x1="15.3873" y1="0.662842" x2="15.3873" y2="25.2742" gradientUnits="userSpaceOnUse">
<stop stop-color="#8B008C"/>
<stop offset="1" stop-color="#F83A67"/>
</linearGradient>
</defs>
</svg>
